<svg id="visual" viewBox="0 0 900 300" width="900" height="300" xmlns="http://www.w3.org/2000/svg" xmlns:xlink="http://www.w3.org/1999/xlink" version="1.1"><rect x="0" y="0" width="900" height="300" fill="#060000"></rect><path d="M0 114L16.7 118.3C33.3 122.7 66.7 131.3 100 130.8C133.3 130.3 166.7 120.7 200 120C233.3 119.3 266.7 127.7 300 131.8C333.3 136 366.7 136 400 128.2C433.3 120.3 466.7 104.7 500 96.3C533.3 88 566.7 87 600 99C633.3 111 666.7 136 700 142.7C733.3 149.3 766.7 137.7 800 126.7C833.3 115.7 866.7 105.3 883.3 100.2L900 95L900 301L883.3 301C866.7 301 833.3 301 800 301C766.7 301 733.3 301 700 301C666.7 301 633.3 301 600 301C566.7 301 533.3 301 500 301C466.7 301 433.3 301 400 301C366.7 301 333.3 301 300 301C266.7 301 233.3 301 200 301C166.7 301 133.3 301 100 301C66.7 301 33.3 301 16.7 301L0 301Z" fill="#feee7d"></path><path d="M0 143L16.7 145C33.3 147 66.7 151 100 151.3C133.3 151.7 166.7 148.3 200 150.3C233.3 152.3 266.7 159.7 300 166C333.3 172.3 366.7 177.7 400 172.7C433.3 167.7 466.7 152.3 500 150.2C533.3 148 566.7 159 600 164C633.3 169 666.7 168 700 165.2C733.3 162.3 766.7 157.7 800 156.3C833.3 155 866.7 157 883.3 158L900 159L900 301L883.3 301C866.7 301 833.3 301 800 301C766.7 301 733.3 301 700 301C666.7 301 633.3 301 600 301C566.7 301 533.3 301 500 301C466.7 301 433.3 301 400 301C366.7 301 333.3 301 300 301C266.7 301 233.3 301 200 301C166.7 301 133.3 301 100 301C66.7 301 33.3 301 16.7 301L0 301Z" fill="#fbbe47"></path><path d="M0 220L16.7 214.3C33.3 208.7 66.7 197.3 100 194C133.3 190.7 166.7 195.3 200 202.2C233.3 209 266.7 218 300 214.7C333.3 211.3 366.7 195.7 400 190.3C433.3 185 466.7 190 500 192.8C533.3 195.7 566.7 196.3 600 200.5C633.3 204.7 666.7 212.3 700 215.2C733.3 218 766.7 216 800 213.7C833.3 211.3 866.7 208.7 883.3 207.3L900 206L900 301L883.3 301C866.7 301 833.3 301 800 301C766.7 301 733.3 301 700 301C666.7 301 633.3 301 600 301C566.7 301 533.3 301 500 301C466.7 301 433.3 301 400 301C366.7 301 333.3 301 300 301C266.7 301 233.3 301 200 301C166.7 301 133.3 301 100 301C66.7 301 33.3 301 16.7 301L0 301Z" fill="#f88a22"></path><path d="M0 236L16.7 236.8C33.3 237.7 66.7 239.3 100 244.3C133.3 249.3 166.7 257.7 200 256.2C233.3 254.7 266.7 243.3 300 237.5C333.3 231.7 366.7 231.3 400 236.5C433.3 241.7 466.7 252.3 500 257.7C533.3 263 566.7 263 600 262.2C633.3 261.3 666.7 259.7 700 257.8C733.3 256 766.7 254 800 254.2C833.3 254.3 866.7 256.7 883.3 257.8L900 259L900 301L883.3 301C866.7 301 833.3 301 800 301C766.7 301 733.3 301 700 301C666.7 301 633.3 301 600 301C566.7 301 533.3 301 500 301C466.7 301 433.3 301 400 301C366.7 301 333.3 301 300 301C266.7 301 233.3 301 200 301C166.7 301 133.3 301 100 301C66.7 301 33.3 301 16.7 301L0 301Z" fill="#f0491c"></path></svg>