<svg id="visual" viewBox="0 0 900 300" width="900" height="300" xmlns="http://www.w3.org/2000/svg" xmlns:xlink="http://www.w3.org/1999/xlink" version="1.1"><rect x="0" y="0" width="900" height="300" fill="#060000"></rect><path d="M0 73L16.7 84C33.3 95 66.7 117 100 125.3C133.3 133.7 166.7 128.3 200 118.7C233.3 109 266.7 95 300 89C333.3 83 366.7 85 400 86.8C433.3 88.7 466.7 90.3 500 106.2C533.3 122 566.7 152 600 152.5C633.3 153 666.7 124 700 111C733.3 98 766.7 101 800 112.2C833.3 123.3 866.7 142.7 883.3 152.3L900 162L900 301L883.3 301C866.7 301 833.3 301 800 301C766.7 301 733.3 301 700 301C666.7 301 633.3 301 600 301C566.7 301 533.3 301 500 301C466.7 301 433.3 301 400 301C366.7 301 333.3 301 300 301C266.7 301 233.3 301 200 301C166.7 301 133.3 301 100 301C66.7 301 33.3 301 16.7 301L0 301Z" fill="#feee7d"></path><path d="M0 168L16.7 167.3C33.3 166.7 66.7 165.3 100 161.5C133.3 157.7 166.7 151.3 200 148.3C233.3 145.3 266.7 145.7 300 151C333.3 156.3 366.7 166.7 400 166.8C433.3 167 466.7 157 500 162.3C533.3 167.7 566.7 188.3 600 193.7C633.3 199 666.7 189 700 176.8C733.3 164.7 766.7 150.3 800 148.8C833.3 147.3 866.7 158.7 883.3 164.3L900 170L900 301L883.3 301C866.7 301 833.3 301 800 301C766.7 301 733.3 301 700 301C666.7 301 633.3 301 600 301C566.7 301 533.3 301 500 301C466.7 301 433.3 301 400 301C366.7 301 333.3 301 300 301C266.7 301 233.3 301 200 301C166.7 301 133.3 301 100 301C66.7 301 33.3 301 16.7 301L0 301Z" fill="#faa532"></path><path d="M0 209L16.7 206.8C33.3 204.7 66.7 200.3 100 201C133.3 201.7 166.7 207.3 200 214.2C233.3 221 266.7 229 300 230.7C333.3 232.3 366.7 227.7 400 231.5C433.3 235.3 466.7 247.7 500 250.5C533.3 253.3 566.7 246.7 600 245.8C633.3 245 666.7 250 700 243.7C733.3 237.3 766.7 219.7 800 209.8C833.3 200 866.7 198 883.3 197L900 196L900 301L883.3 301C866.7 301 833.3 301 800 301C766.7 301 733.3 301 700 301C666.7 301 633.3 301 600 301C566.7 301 533.3 301 500 301C466.7 301 433.3 301 400 301C366.7 301 333.3 301 300 301C266.7 301 233.3 301 200 301C166.7 301 133.3 301 100 301C66.7 301 33.3 301 16.7 301L0 301Z" fill="#f0491c"></path></svg>