<svg id="visual" viewBox="0 0 900 300" width="900" height="300" xmlns="http://www.w3.org/2000/svg" xmlns:xlink="http://www.w3.org/1999/xlink" version="1.1"><rect x="0" y="0" width="900" height="300" fill="#060000"></rect><path d="M0 111L16.7 111.2C33.3 111.3 66.7 111.7 100 114.2C133.3 116.7 166.7 121.3 200 120C233.3 118.7 266.7 111.3 300 112.7C333.3 114 366.7 124 400 129.2C433.3 134.3 466.7 134.7 500 138.2C533.3 141.7 566.7 148.3 600 154.2C633.3 160 666.7 165 700 169.2C733.3 173.3 766.7 176.7 800 169.3C833.3 162 866.7 144 883.3 135L900 126L900 301L883.3 301C866.7 301 833.3 301 800 301C766.7 301 733.3 301 700 301C666.7 301 633.3 301 600 301C566.7 301 533.3 301 500 301C466.7 301 433.3 301 400 301C366.7 301 333.3 301 300 301C266.7 301 233.3 301 200 301C166.7 301 133.3 301 100 301C66.7 301 33.3 301 16.7 301L0 301Z" fill="#feee7d"></path><path d="M0 174L16.7 183.3C33.3 192.7 66.7 211.3 100 220.8C133.3 230.3 166.7 230.7 200 224.3C233.3 218 266.7 205 300 195.8C333.3 186.7 366.7 181.3 400 184.8C433.3 188.3 466.7 200.7 500 208C533.3 215.3 566.7 217.7 600 215.2C633.3 212.7 666.7 205.3 700 202.3C733.3 199.3 766.7 200.7 800 204.7C833.3 208.7 866.7 215.3 883.3 218.7L900 222L900 301L883.3 301C866.7 301 833.3 301 800 301C766.7 301 733.3 301 700 301C666.7 301 633.3 301 600 301C566.7 301 533.3 301 500 301C466.7 301 433.3 301 400 301C366.7 301 333.3 301 300 301C266.7 301 233.3 301 200 301C166.7 301 133.3 301 100 301C66.7 301 33.3 301 16.7 301L0 301Z" fill="#f0491c"></path></svg>