<svg id="visual" viewBox="0 0 900 300" width="900" height="300" xmlns="http://www.w3.org/2000/svg" xmlns:xlink="http://www.w3.org/1999/xlink" version="1.1"><rect x="0" y="0" width="900" height="300" fill="#001220"></rect><path d="M0 100L16.7 105.7C33.3 111.3 66.7 122.7 100 130.5C133.3 138.3 166.7 142.7 200 146.2C233.3 149.7 266.7 152.3 300 149.2C333.3 146 366.7 137 400 127.7C433.3 118.3 466.7 108.7 500 110.2C533.3 111.7 566.7 124.3 600 132.3C633.3 140.3 666.7 143.7 700 144.2C733.3 144.7 766.7 142.3 800 137.2C833.3 132 866.7 124 883.3 120L900 116L900 301L883.3 301C866.7 301 833.3 301 800 301C766.7 301 733.3 301 700 301C666.7 301 633.3 301 600 301C566.7 301 533.3 301 500 301C466.7 301 433.3 301 400 301C366.7 301 333.3 301 300 301C266.7 301 233.3 301 200 301C166.7 301 133.3 301 100 301C66.7 301 33.3 301 16.7 301L0 301Z" fill="#feee7d"></path><path d="M0 159L16.7 161.3C33.3 163.7 66.7 168.3 100 169.8C133.3 171.3 166.7 169.7 200 165.2C233.3 160.7 266.7 153.3 300 147.5C333.3 141.7 366.7 137.3 400 140C433.3 142.7 466.7 152.3 500 161.7C533.3 171 566.7 180 600 188C633.3 196 666.7 203 700 196.2C733.3 189.3 766.7 168.7 800 166.3C833.3 164 866.7 180 883.3 188L900 196L900 301L883.3 301C866.7 301 833.3 301 800 301C766.7 301 733.3 301 700 301C666.7 301 633.3 301 600 301C566.7 301 533.3 301 500 301C466.7 301 433.3 301 400 301C366.7 301 333.3 301 300 301C266.7 301 233.3 301 200 301C166.7 301 133.3 301 100 301C66.7 301 33.3 301 16.7 301L0 301Z" fill="#fccb54"></path><path d="M0 228L16.7 218.3C33.3 208.7 66.7 189.3 100 184.2C133.3 179 166.7 188 200 195.8C233.3 203.7 266.7 210.3 300 205.8C333.3 201.3 366.7 185.7 400 178.3C433.3 171 466.7 172 500 178.3C533.3 184.7 566.7 196.3 600 203.2C633.3 210 666.7 212 700 213.2C733.3 214.3 766.7 214.7 800 218C833.3 221.3 866.7 227.7 883.3 230.8L900 234L900 301L883.3 301C866.7 301 833.3 301 800 301C766.7 301 733.3 301 700 301C666.7 301 633.3 301 600 301C566.7 301 533.3 301 500 301C466.7 301 433.3 301 400 301C366.7 301 333.3 301 300 301C266.7 301 233.3 301 200 301C166.7 301 133.3 301 100 301C66.7 301 33.3 301 16.7 301L0 301Z" fill="#faa532"></path><path d="M0 229L16.7 229.8C33.3 230.7 66.7 232.3 100 236.5C133.3 240.7 166.7 247.3 200 246.3C233.3 245.3 266.7 236.7 300 235.2C333.3 233.7 366.7 239.3 400 242C433.3 244.7 466.7 244.3 500 241.2C533.3 238 566.7 232 600 229C633.3 226 666.7 226 700 231.2C733.3 236.3 766.7 246.7 800 242.3C833.3 238 866.7 219 883.3 209.5L900 200L900 301L883.3 301C866.7 301 833.3 301 800 301C766.7 301 733.3 301 700 301C666.7 301 633.3 301 600 301C566.7 301 533.3 301 500 301C466.7 301 433.3 301 400 301C366.7 301 333.3 301 300 301C266.7 301 233.3 301 200 301C166.7 301 133.3 301 100 301C66.7 301 33.3 301 16.7 301L0 301Z" fill="#f67b1d"></path><path d="M0 259L16.7 258C33.3 257 66.7 255 100 254.7C133.3 254.3 166.7 255.7 200 260C233.3 264.3 266.7 271.7 300 271C333.3 270.3 366.7 261.7 400 260.8C433.3 260 466.7 267 500 267C533.3 267 566.7 260 600 260.3C633.3 260.7 666.7 268.3 700 267.5C733.3 266.7 766.7 257.3 800 253.2C833.3 249 866.7 250 883.3 250.5L900 251L900 301L883.3 301C866.7 301 833.3 301 800 301C766.7 301 733.3 301 700 301C666.7 301 633.3 301 600 301C566.7 301 533.3 301 500 301C466.7 301 433.3 301 400 301C366.7 301 333.3 301 300 301C266.7 301 233.3 301 200 301C166.7 301 133.3 301 100 301C66.7 301 33.3 301 16.7 301L0 301Z" fill="#f0491c"></path></svg>