<svg id="visual" viewBox="0 0 900 300" width="900" height="300" xmlns="http://www.w3.org/2000/svg" xmlns:xlink="http://www.w3.org/1999/xlink" version="1.1"><rect x="0" y="0" width="900" height="300" fill="#060000"></rect><path d="M0 170L16.7 169.8C33.3 169.7 66.7 169.3 100 166C133.3 162.7 166.7 156.3 200 140.8C233.3 125.3 266.7 100.7 300 100.2C333.3 99.7 366.7 123.3 400 131.8C433.3 140.3 466.7 133.7 500 122.3C533.3 111 566.7 95 600 92.3C633.3 89.7 666.7 100.3 700 106C733.3 111.7 766.7 112.3 800 107C833.3 101.7 866.7 90.3 883.3 84.7L900 79L900 301L883.3 301C866.7 301 833.3 301 800 301C766.7 301 733.3 301 700 301C666.7 301 633.3 301 600 301C566.7 301 533.3 301 500 301C466.7 301 433.3 301 400 301C366.7 301 333.3 301 300 301C266.7 301 233.3 301 200 301C166.7 301 133.3 301 100 301C66.7 301 33.3 301 16.7 301L0 301Z" fill="#feee7d"></path><path d="M0 224L16.7 223.7C33.3 223.3 66.7 222.7 100 212.8C133.3 203 166.7 184 200 185.5C233.3 187 266.7 209 300 218.5C333.3 228 366.7 225 400 219.5C433.3 214 466.7 206 500 197.7C533.3 189.3 566.7 180.7 600 180.7C633.3 180.7 666.7 189.3 700 183.5C733.3 177.7 766.7 157.3 800 158.2C833.3 159 866.7 181 883.3 192L900 203L900 301L883.3 301C866.7 301 833.3 301 800 301C766.7 301 733.3 301 700 301C666.7 301 633.3 301 600 301C566.7 301 533.3 301 500 301C466.7 301 433.3 301 400 301C366.7 301 333.3 301 300 301C266.7 301 233.3 301 200 301C166.7 301 133.3 301 100 301C66.7 301 33.3 301 16.7 301L0 301Z" fill="#faa532"></path><path d="M0 255L16.7 245.7C33.3 236.3 66.7 217.7 100 208.3C133.3 199 166.7 199 200 197.7C233.3 196.3 266.7 193.7 300 200C333.3 206.3 366.7 221.7 400 228.3C433.3 235 466.7 233 500 226.7C533.3 220.3 566.7 209.7 600 210.7C633.3 211.7 666.7 224.3 700 232.2C733.3 240 766.7 243 800 237.2C833.3 231.3 866.7 216.7 883.3 209.3L900 202L900 301L883.3 301C866.7 301 833.3 301 800 301C766.7 301 733.3 301 700 301C666.7 301 633.3 301 600 301C566.7 301 533.3 301 500 301C466.7 301 433.3 301 400 301C366.7 301 333.3 301 300 301C266.7 301 233.3 301 200 301C166.7 301 133.3 301 100 301C66.7 301 33.3 301 16.7 301L0 301Z" fill="#f0491c"></path></svg>