<svg id="visual" viewBox="0 0 900 300" width="900" height="300" xmlns="http://www.w3.org/2000/svg" xmlns:xlink="http://www.w3.org/1999/xlink" version="1.1"><rect x="0" y="0" width="900" height="300" fill="#060000"></rect><path d="M0 139L16.7 136.5C33.3 134 66.7 129 100 129.5C133.3 130 166.7 136 200 132.3C233.3 128.7 266.7 115.3 300 114.5C333.3 113.7 366.7 125.3 400 124.2C433.3 123 466.7 109 500 112.2C533.3 115.3 566.7 135.7 600 138.8C633.3 142 666.7 128 700 123C733.3 118 766.7 122 800 123.5C833.3 125 866.7 124 883.3 123.5L900 123L900 301L883.3 301C866.7 301 833.3 301 800 301C766.7 301 733.3 301 700 301C666.7 301 633.3 301 600 301C566.7 301 533.3 301 500 301C466.7 301 433.3 301 400 301C366.7 301 333.3 301 300 301C266.7 301 233.3 301 200 301C166.7 301 133.3 301 100 301C66.7 301 33.3 301 16.7 301L0 301Z" fill="#feee7d"></path><path d="M0 199L16.7 200.5C33.3 202 66.7 205 100 197.3C133.3 189.7 166.7 171.3 200 167.5C233.3 163.7 266.7 174.3 300 178.7C333.3 183 366.7 181 400 184.7C433.3 188.3 466.7 197.7 500 197.8C533.3 198 566.7 189 600 179.8C633.3 170.7 666.7 161.3 700 164.7C733.3 168 766.7 184 800 189.2C833.3 194.3 866.7 188.7 883.3 185.8L900 183L900 301L883.3 301C866.7 301 833.3 301 800 301C766.7 301 733.3 301 700 301C666.7 301 633.3 301 600 301C566.7 301 533.3 301 500 301C466.7 301 433.3 301 400 301C366.7 301 333.3 301 300 301C266.7 301 233.3 301 200 301C166.7 301 133.3 301 100 301C66.7 301 33.3 301 16.7 301L0 301Z" fill="#faa532"></path><path d="M0 251L16.7 249.7C33.3 248.3 66.7 245.7 100 242.8C133.3 240 166.7 237 200 232.2C233.3 227.3 266.7 220.7 300 216.3C333.3 212 366.7 210 400 214C433.3 218 466.7 228 500 233.3C533.3 238.7 566.7 239.3 600 242.7C633.3 246 666.7 252 700 250C733.3 248 766.7 238 800 237C833.3 236 866.7 244 883.3 248L900 252L900 301L883.3 301C866.7 301 833.3 301 800 301C766.7 301 733.3 301 700 301C666.7 301 633.3 301 600 301C566.7 301 533.3 301 500 301C466.7 301 433.3 301 400 301C366.7 301 333.3 301 300 301C266.7 301 233.3 301 200 301C166.7 301 133.3 301 100 301C66.7 301 33.3 301 16.7 301L0 301Z" fill="#f0491c"></path></svg>