<svg id="visual" viewBox="0 0 900 300" width="900" height="300" xmlns="http://www.w3.org/2000/svg" xmlns:xlink="http://www.w3.org/1999/xlink" version="1.1"><rect x="0" y="0" width="900" height="300" fill="#060000"></rect><path d="M0 137L16.7 139.7C33.3 142.3 66.7 147.7 100 151C133.3 154.3 166.7 155.7 200 149C233.3 142.3 266.7 127.7 300 123.5C333.3 119.3 366.7 125.7 400 131.5C433.3 137.3 466.7 142.7 500 144.5C533.3 146.3 566.7 144.7 600 145.8C633.3 147 666.7 151 700 151.7C733.3 152.3 766.7 149.7 800 142.2C833.3 134.7 866.7 122.3 883.3 116.2L900 110L900 301L883.3 301C866.7 301 833.3 301 800 301C766.7 301 733.3 301 700 301C666.7 301 633.3 301 600 301C566.7 301 533.3 301 500 301C466.7 301 433.3 301 400 301C366.7 301 333.3 301 300 301C266.7 301 233.3 301 200 301C166.7 301 133.3 301 100 301C66.7 301 33.3 301 16.7 301L0 301Z" fill="#feee7d"></path><path d="M0 132L16.7 138.3C33.3 144.7 66.7 157.3 100 160.8C133.3 164.3 166.7 158.7 200 156.7C233.3 154.7 266.7 156.3 300 159.2C333.3 162 366.7 166 400 171C433.3 176 466.7 182 500 178.3C533.3 174.7 566.7 161.3 600 157.7C633.3 154 666.7 160 700 165C733.3 170 766.7 174 800 177.7C833.3 181.3 866.7 184.7 883.3 186.3L900 188L900 301L883.3 301C866.7 301 833.3 301 800 301C766.7 301 733.3 301 700 301C666.7 301 633.3 301 600 301C566.7 301 533.3 301 500 301C466.7 301 433.3 301 400 301C366.7 301 333.3 301 300 301C266.7 301 233.3 301 200 301C166.7 301 133.3 301 100 301C66.7 301 33.3 301 16.7 301L0 301Z" fill="#fbbe47"></path><path d="M0 194L16.7 194.7C33.3 195.3 66.7 196.7 100 199.2C133.3 201.7 166.7 205.3 200 202.7C233.3 200 266.7 191 300 192.5C333.3 194 366.7 206 400 211C433.3 216 466.7 214 500 211.2C533.3 208.3 566.7 204.7 600 200.2C633.3 195.7 666.7 190.3 700 187.3C733.3 184.3 766.7 183.7 800 184C833.3 184.3 866.7 185.7 883.3 186.3L900 187L900 301L883.3 301C866.7 301 833.3 301 800 301C766.7 301 733.3 301 700 301C666.7 301 633.3 301 600 301C566.7 301 533.3 301 500 301C466.7 301 433.3 301 400 301C366.7 301 333.3 301 300 301C266.7 301 233.3 301 200 301C166.7 301 133.3 301 100 301C66.7 301 33.3 301 16.7 301L0 301Z" fill="#f88a22"></path><path d="M0 238L16.7 236.7C33.3 235.3 66.7 232.7 100 232.7C133.3 232.7 166.7 235.3 200 239.8C233.3 244.3 266.7 250.7 300 251.7C333.3 252.7 366.7 248.3 400 242.8C433.3 237.3 466.7 230.7 500 230.8C533.3 231 566.7 238 600 241.2C633.3 244.3 666.7 243.7 700 244.8C733.3 246 766.7 249 800 249.5C833.3 250 866.7 248 883.3 247L900 246L900 301L883.3 301C866.7 301 833.3 301 800 301C766.7 301 733.3 301 700 301C666.7 301 633.3 301 600 301C566.7 301 533.3 301 500 301C466.7 301 433.3 301 400 301C366.7 301 333.3 301 300 301C266.7 301 233.3 301 200 301C166.7 301 133.3 301 100 301C66.7 301 33.3 301 16.7 301L0 301Z" fill="#f0491c"></path></svg>