<svg id="visual" viewBox="0 0 900 300" width="900" height="300" xmlns="http://www.w3.org/2000/svg" xmlns:xlink="http://www.w3.org/1999/xlink" version="1.1"><rect x="0" y="0" width="900" height="300" fill="#FF4500"></rect><path d="M0 204L21.5 204.7C43 205.3 86 206.7 128.8 212C171.7 217.3 214.3 226.7 257.2 201.8C300 177 343 118 385.8 108.7C428.7 99.3 471.3 139.7 514.2 150.8C557 162 600 144 642.8 128.2C685.7 112.3 728.3 98.7 771.2 108C814 117.3 857 149.7 878.5 165.8L900 182L900 301L878.5 301C857 301 814 301 771.2 301C728.3 301 685.7 301 642.8 301C600 301 557 301 514.2 301C471.3 301 428.7 301 385.8 301C343 301 300 301 257.2 301C214.3 301 171.7 301 128.8 301C86 301 43 301 21.5 301L0 301Z" fill="#FFCC00" stroke-linecap="round" stroke-linejoin="miter"></path></svg>