<svg id="visual" viewBox="0 0 900 300" width="900" height="300" xmlns="http://www.w3.org/2000/svg" xmlns:xlink="http://www.w3.org/1999/xlink" version="1.1"><rect x="0" y="0" width="900" height="300" fill="#FF4500"></rect><path d="M0 127L21.5 123.3C43 119.7 86 112.3 128.8 130.7C171.7 149 214.3 193 257.2 214.3C300 235.7 343 234.3 385.8 227.5C428.7 220.7 471.3 208.3 514.2 190.7C557 173 600 150 642.8 155.3C685.7 160.7 728.3 194.3 771.2 202.2C814 210 857 192 878.5 183L900 174L900 301L878.5 301C857 301 814 301 771.2 301C728.3 301 685.7 301 642.8 301C600 301 557 301 514.2 301C471.3 301 428.7 301 385.8 301C343 301 300 301 257.2 301C214.3 301 171.7 301 128.8 301C86 301 43 301 21.5 301L0 301Z" fill="#FFCC00" stroke-linecap="round" stroke-linejoin="miter"></path></svg>