<svg id="visual" viewBox="0 0 900 200" width="900" height="200" xmlns="http://www.w3.org/2000/svg" xmlns:xlink="http://www.w3.org/1999/xlink" version="1.1"><rect x="0" y="0" width="900" height="200" fill="#0c0500"></rect><path d="M0 167L16.7 159.8C33.3 152.7 66.7 138.3 100 121.8C133.3 105.3 166.7 86.7 200 87C233.3 87.3 266.7 106.7 300 112.8C333.3 119 366.7 112 400 99.3C433.3 86.7 466.7 68.3 500 59.5C533.3 50.7 566.7 51.3 600 53.2C633.3 55 666.7 58 700 68.7C733.3 79.3 766.7 97.7 800 94C833.3 90.3 866.7 64.7 883.3 51.8L900 39L900 201L883.3 201C866.7 201 833.3 201 800 201C766.7 201 733.3 201 700 201C666.7 201 633.3 201 600 201C566.7 201 533.3 201 500 201C466.7 201 433.3 201 400 201C366.7 201 333.3 201 300 201C266.7 201 233.3 201 200 201C166.7 201 133.3 201 100 201C66.7 201 33.3 201 16.7 201L0 201Z" fill="#FFCC00" stroke-linecap="round" stroke-linejoin="miter"></path></svg>