<svg id="visual" viewBox="0 0 900 300" width="900" height="300" xmlns="http://www.w3.org/2000/svg" xmlns:xlink="http://www.w3.org/1999/xlink" version="1.1"><rect x="0" y="0" width="900" height="300" fill="#1e1e1e"></rect><path d="M0 117L10.7 106.2C21.3 95.3 42.7 73.7 64.2 74.8C85.7 76 107.3 100 128.8 107.7C150.3 115.3 171.7 106.7 193 113.7C214.3 120.7 235.7 143.3 257 134.7C278.3 126 299.7 86 321.2 81.2C342.7 76.3 364.3 106.7 385.8 116.2C407.3 125.7 428.7 114.3 450 135C471.3 155.7 492.7 208.3 514.2 219.2C535.7 230 557.3 199 578.8 189C600.3 179 621.7 190 643 169.2C664.3 148.3 685.7 95.7 707 81.3C728.3 67 749.7 91 771.2 116.5C792.7 142 814.3 169 835.8 179C857.3 189 878.7 182 889.3 178.5L900 175L900 301L889.3 301C878.7 301 857.3 301 835.8 301C814.3 301 792.7 301 771.2 301C749.7 301 728.3 301 707 301C685.7 301 664.3 301 643 301C621.7 301 600.3 301 578.8 301C557.3 301 535.7 301 514.2 301C492.7 301 471.3 301 450 301C428.7 301 407.3 301 385.8 301C364.3 301 342.7 301 321.2 301C299.7 301 278.3 301 257 301C235.7 301 214.3 301 193 301C171.7 301 150.3 301 128.8 301C107.3 301 85.7 301 64.2 301C42.7 301 21.3 301 10.7 301L0 301Z" fill="#FFCC00" stroke-linecap="round" stroke-linejoin="miter"></path></svg>