<svg id="visual" viewBox="0 0 900 300" width="900" height="300" xmlns="http://www.w3.org/2000/svg" xmlns:xlink="http://www.w3.org/1999/xlink" version="1.1"><rect x="0" y="0" width="900" height="300" fill="#ffffff"></rect><path d="M0 124L21.5 130.8C43 137.7 86 151.3 128.8 168.5C171.7 185.7 214.3 206.3 257.2 209.5C300 212.7 343 198.3 385.8 177.5C428.7 156.7 471.3 129.3 514.2 127.2C557 125 600 148 642.8 146.2C685.7 144.3 728.3 117.7 771.2 126.5C814 135.3 857 179.7 878.5 201.8L900 224L900 301L878.5 301C857 301 814 301 771.2 301C728.3 301 685.7 301 642.8 301C600 301 557 301 514.2 301C471.3 301 428.7 301 385.8 301C343 301 300 301 257.2 301C214.3 301 171.7 301 128.8 301C86 301 43 301 21.5 301L0 301Z" fill="#FFCC00" stroke-linecap="round" stroke-linejoin="miter"></path></svg>