<svg id="visual" viewBox="0 0 900 300" width="900" height="300" xmlns="http://www.w3.org/2000/svg" xmlns:xlink="http://www.w3.org/1999/xlink" version="1.1"><rect x="0" y="0" width="900" height="300" fill="#1e1e1e"></rect><path d="M0 133L10.7 123.3C21.3 113.7 42.7 94.3 64.2 87.5C85.7 80.7 107.3 86.3 128.8 83.2C150.3 80 171.7 68 193 87C214.3 106 235.7 156 257 183.3C278.3 210.7 299.7 215.3 321.2 207.7C342.7 200 364.3 180 385.8 186.7C407.3 193.3 428.7 226.7 450 222C471.3 217.3 492.7 174.7 514.2 155.7C535.7 136.7 557.3 141.3 578.8 149.5C600.3 157.7 621.7 169.3 643 171.2C664.3 173 685.7 165 707 163.7C728.3 162.3 749.7 167.7 771.2 153.7C792.7 139.7 814.3 106.3 835.8 83.7C857.3 61 878.7 49 889.3 43L900 37L900 301L889.3 301C878.7 301 857.3 301 835.8 301C814.3 301 792.7 301 771.2 301C749.7 301 728.3 301 707 301C685.7 301 664.3 301 643 301C621.7 301 600.3 301 578.8 301C557.3 301 535.7 301 514.2 301C492.7 301 471.3 301 450 301C428.7 301 407.3 301 385.8 301C364.3 301 342.7 301 321.2 301C299.7 301 278.3 301 257 301C235.7 301 214.3 301 193 301C171.7 301 150.3 301 128.8 301C107.3 301 85.7 301 64.2 301C42.7 301 21.3 301 10.7 301L0 301Z" fill="#FFCC00" stroke-linecap="round" stroke-linejoin="miter"></path></svg>