<svg id="visual" viewBox="0 0 900 300" width="900" height="300" xmlns="http://www.w3.org/2000/svg" xmlns:xlink="http://www.w3.org/1999/xlink" version="1.1"><rect x="0" y="0" width="900" height="300" fill="#FF4500"></rect><path d="M0 249L21.5 242.7C43 236.3 86 223.7 128.8 206.2C171.7 188.7 214.3 166.3 257.2 139C300 111.7 343 79.3 385.8 84.7C428.7 90 471.3 133 514.2 162C557 191 600 206 642.8 190.3C685.7 174.7 728.3 128.3 771.2 103.8C814 79.3 857 76.7 878.5 75.3L900 74L900 301L878.5 301C857 301 814 301 771.2 301C728.3 301 685.7 301 642.8 301C600 301 557 301 514.2 301C471.3 301 428.7 301 385.8 301C343 301 300 301 257.2 301C214.3 301 171.7 301 128.8 301C86 301 43 301 21.5 301L0 301Z" fill="#FFCC00" stroke-linecap="round" stroke-linejoin="miter"></path></svg>