<svg id="visual" viewBox="0 0 900 300" width="900" height="300" xmlns="http://www.w3.org/2000/svg" xmlns:xlink="http://www.w3.org/1999/xlink" version="1.1"><rect x="0" y="0" width="900" height="300" fill="#1e1e1e"></rect><path d="M0 131L10.7 149.7C21.3 168.3 42.7 205.7 64.2 191.5C85.7 177.3 107.3 111.7 128.8 104.2C150.3 96.7 171.7 147.3 193 175.2C214.3 203 235.7 208 257 212C278.3 216 299.7 219 321.2 226.2C342.7 233.3 364.3 244.7 385.8 233.7C407.3 222.7 428.7 189.3 450 154.3C471.3 119.3 492.7 82.7 514.2 74.2C535.7 65.7 557.3 85.3 578.8 91.5C600.3 97.7 621.7 90.3 643 110.8C664.3 131.3 685.7 179.7 707 200.2C728.3 220.7 749.7 213.3 771.2 197.7C792.7 182 814.3 158 835.8 138.5C857.3 119 878.7 104 889.3 96.5L900 89L900 301L889.3 301C878.7 301 857.3 301 835.8 301C814.3 301 792.7 301 771.2 301C749.7 301 728.3 301 707 301C685.7 301 664.3 301 643 301C621.7 301 600.3 301 578.8 301C557.3 301 535.7 301 514.2 301C492.7 301 471.3 301 450 301C428.7 301 407.3 301 385.8 301C364.3 301 342.7 301 321.2 301C299.7 301 278.3 301 257 301C235.7 301 214.3 301 193 301C171.7 301 150.3 301 128.8 301C107.3 301 85.7 301 64.2 301C42.7 301 21.3 301 10.7 301L0 301Z" fill="#FFCC00" stroke-linecap="round" stroke-linejoin="miter"></path></svg>