<svg id="visual" viewBox="0 0 900 200" width="900" height="200" xmlns="http://www.w3.org/2000/svg" xmlns:xlink="http://www.w3.org/1999/xlink" version="1.1"><rect x="0" y="0" width="900" height="200" fill="#0c0500"></rect><path d="M0 177L16.7 172C33.3 167 66.7 157 100 156C133.3 155 166.7 163 200 159.5C233.3 156 266.7 141 300 122.7C333.3 104.3 366.7 82.7 400 81.5C433.3 80.3 466.7 99.7 500 114.5C533.3 129.3 566.7 139.7 600 124.8C633.3 110 666.7 70 700 55.7C733.3 41.3 766.7 52.7 800 66C833.3 79.3 866.7 94.7 883.3 102.3L900 110L900 201L883.3 201C866.7 201 833.3 201 800 201C766.7 201 733.3 201 700 201C666.7 201 633.3 201 600 201C566.7 201 533.3 201 500 201C466.7 201 433.3 201 400 201C366.7 201 333.3 201 300 201C266.7 201 233.3 201 200 201C166.7 201 133.3 201 100 201C66.7 201 33.3 201 16.7 201L0 201Z" fill="#FFCC00" stroke-linecap="round" stroke-linejoin="miter"></path></svg>