<svg id="visual" viewBox="0 0 900 300" width="900" height="300" xmlns="http://www.w3.org/2000/svg" xmlns:xlink="http://www.w3.org/1999/xlink" version="1.1"><rect x="0" y="0" width="900" height="300" fill="#ffffff"></rect><path d="M0 131L21.5 135.8C43 140.7 86 150.3 128.8 146.3C171.7 142.3 214.3 124.7 257.2 106.3C300 88 343 69 385.8 79C428.7 89 471.3 128 514.2 139.8C557 151.7 600 136.3 642.8 123.7C685.7 111 728.3 101 771.2 112.8C814 124.7 857 158.3 878.5 175.2L900 192L900 301L878.5 301C857 301 814 301 771.2 301C728.3 301 685.7 301 642.8 301C600 301 557 301 514.2 301C471.3 301 428.7 301 385.8 301C343 301 300 301 257.2 301C214.3 301 171.7 301 128.8 301C86 301 43 301 21.5 301L0 301Z" fill="#FFCC00" stroke-linecap="round" stroke-linejoin="miter"></path></svg>