<svg id="visual" viewBox="0 0 900 300" width="900" height="300" xmlns="http://www.w3.org/2000/svg" xmlns:xlink="http://www.w3.org/1999/xlink" version="1.1"><rect x="0" y="0" width="900" height="300" fill="#FF4500"></rect><path d="M0 251L21.5 227.5C43 204 86 157 128.8 130.7C171.7 104.3 214.3 98.7 257.2 121.3C300 144 343 195 385.8 206.2C428.7 217.3 471.3 188.7 514.2 165.5C557 142.3 600 124.7 642.8 122.7C685.7 120.7 728.3 134.3 771.2 145.3C814 156.3 857 164.7 878.5 168.8L900 173L900 301L878.5 301C857 301 814 301 771.2 301C728.3 301 685.7 301 642.8 301C600 301 557 301 514.2 301C471.3 301 428.7 301 385.8 301C343 301 300 301 257.2 301C214.3 301 171.7 301 128.8 301C86 301 43 301 21.5 301L0 301Z" fill="#FFCC00" stroke-linecap="round" stroke-linejoin="miter"></path></svg>