<svg id="visual" viewBox="0 0 900 600" width="900" height="600" xmlns="http://www.w3.org/2000/svg" xmlns:xlink="http://www.w3.org/1999/xlink" version="1.1"><rect x="0" y="0" width="900" height="600" fill="#ffffff"></rect><defs><linearGradient id="grad1_0" x1="33.3%" y1="0%" x2="100%" y2="100%"><stop offset="20%" stop-color="#ffffff" stop-opacity="1"></stop><stop offset="80%" stop-color="#ffffff" stop-opacity="1"></stop></linearGradient></defs><defs><linearGradient id="grad2_0" x1="0%" y1="0%" x2="66.7%" y2="100%"><stop offset="20%" stop-color="#ffffff" stop-opacity="1"></stop><stop offset="80%" stop-color="#ffffff" stop-opacity="1"></stop></linearGradient></defs><g transform="translate(900, 0)"><path d="M0 324.5C-14.5 300.3 -28.9 276 -41.5 261.7C-54 247.5 -64.7 243.2 -81.3 250.1C-97.9 257.1 -120.4 275.3 -144.8 284.2C-169.2 293.2 -195.4 292.9 -190.7 262.5C-186 232.2 -150.5 171.8 -150.6 150.6C-150.8 129.4 -186.7 147.4 -195.8 142.2C-204.9 137.1 -187.3 108.8 -177.3 90.3C-167.4 71.9 -165.1 63.1 -174 56.6C-183 50 -203.2 45.5 -230.1 36.4C-257.1 27.4 -290.8 13.7 -324.5 0L0 0Z" fill="#FFCC00"></path></g><g transform="translate(0, 600)"><path d="M0 -324.5C15.7 -304.6 31.4 -284.7 41.9 -264.7C52.5 -244.7 57.9 -224.6 72.9 -224.4C88 -224.3 112.7 -244.2 117.6 -230.8C122.4 -217.4 107.4 -170.7 115.2 -158.6C123 -146.5 153.7 -168.9 177.5 -177.5C201.3 -186 218.3 -180.7 238.7 -173.4C259 -166.1 282.9 -156.8 263.7 -134.4C244.6 -111.9 182.6 -76.3 193.1 -62.7C203.5 -49.1 286.5 -57.5 320.5 -50.8C354.5 -44 339.5 -22 324.5 0L0 0Z" fill="#FFCC00"></path></g></svg>