<svg id="visual" viewBox="0 0 900 600" width="900" height="600" xmlns="http://www.w3.org/2000/svg" xmlns:xlink="http://www.w3.org/1999/xlink" version="1.1"><rect x="0" y="0" width="900" height="600" fill="#ffffff"></rect><defs><linearGradient id="grad1_0" x1="33.3%" y1="0%" x2="100%" y2="100%"><stop offset="20%" stop-color="#ffffff" stop-opacity="1"></stop><stop offset="80%" stop-color="#ffffff" stop-opacity="1"></stop></linearGradient></defs><defs><linearGradient id="grad2_0" x1="0%" y1="0%" x2="66.7%" y2="100%"><stop offset="20%" stop-color="#ffffff" stop-opacity="1"></stop><stop offset="80%" stop-color="#ffffff" stop-opacity="1"></stop></linearGradient></defs><g transform="translate(900, 0)"><path d="M0 324.5C-14.6 289.5 -29.1 254.4 -35.5 224.2C-41.9 194 -40.1 168.6 -60.9 187.4C-81.6 206.1 -124.8 269.1 -135.3 265.5C-145.8 261.9 -123.5 191.7 -113.4 156.1C-103.4 120.6 -105.7 119.7 -132.9 132.9C-160.2 146.2 -212.5 173.5 -246.8 179.3C-281 185 -297.2 169.2 -289.1 147.3C-281 125.4 -248.7 97.3 -248.2 80.7C-247.8 64 -279.3 58.6 -297.3 47.1C-315.3 35.5 -319.9 17.8 -324.5 0L0 0Z" fill="#FFCC00"></path></g><g transform="translate(0, 600)"><path d="M0 -324.5C9.9 -275 19.8 -225.6 34.7 -219.3C49.6 -213 69.5 -249.9 83.7 -257.7C98 -265.6 106.5 -244.4 118 -231.7C129.6 -218.9 144 -214.7 141.7 -195C139.3 -175.2 120.1 -140 134.4 -134.4C148.6 -128.7 196.3 -152.6 201.4 -146.4C206.6 -140.1 169.2 -103.8 183.5 -93.5C197.9 -83.3 263.9 -99.1 294.8 -95.8C325.7 -92.5 321.4 -69.9 320.5 -50.8C319.6 -31.6 322 -15.8 324.5 0L0 0Z" fill="#FFCC00"></path></g></svg>