<svg id="visual" viewBox="0 0 900 600" width="900" height="600" xmlns="http://www.w3.org/2000/svg" xmlns:xlink="http://www.w3.org/1999/xlink" version="1.1"><rect x="0" y="0" width="900" height="600" fill="#ffffff"></rect><defs><linearGradient id="grad1_0" x1="33.3%" y1="0%" x2="100%" y2="100%"><stop offset="20%" stop-color="#ffffff" stop-opacity="1"></stop><stop offset="80%" stop-color="#ffffff" stop-opacity="1"></stop></linearGradient></defs><defs><linearGradient id="grad2_0" x1="0%" y1="0%" x2="66.7%" y2="100%"><stop offset="20%" stop-color="#ffffff" stop-opacity="1"></stop><stop offset="80%" stop-color="#ffffff" stop-opacity="1"></stop></linearGradient></defs><g transform="translate(900, 0)"><path d="M0 324.5C-15.9 297.4 -31.8 270.4 -37.9 239C-44 207.7 -40.3 172.1 -60.9 187.4C-81.5 202.6 -126.3 268.8 -135.7 266.4C-145.2 264 -119.3 193.1 -128.7 177.2C-138.1 161.2 -182.9 200.2 -208.6 208.6C-234.3 217 -241 194.9 -234.6 170.5C-228.2 146 -208.7 119.4 -201.4 102.6C-194 85.8 -198.8 79 -225.4 73.2C-252 67.5 -300.4 62.8 -320.5 50.8C-340.7 38.7 -332.6 19.4 -324.5 0L0 0Z" fill="#FFCC00"></path></g><g transform="translate(0, 600)"><path d="M0 -324.5C10.1 -266.3 20.2 -208 29.4 -185.7C38.7 -163.3 47.1 -176.9 63.3 -195C79.6 -213 103.8 -235.6 125.8 -246.8C147.7 -258 167.4 -257.8 180.5 -248.4C193.5 -239 200 -220.4 205.1 -205.1C210.2 -189.7 213.9 -177.7 237 -172.2C260.1 -166.8 302.6 -167.9 289.1 -147.3C275.7 -126.7 206.4 -84.4 203.5 -66.1C200.6 -47.9 264.1 -53.8 295.3 -46.8C326.5 -39.8 325.5 -19.9 324.5 0L0 0Z" fill="#FFCC00"></path></g></svg>