<svg id="visual" viewBox="0 0 900 600" width="900" height="600" xmlns="http://www.w3.org/2000/svg" xmlns:xlink="http://www.w3.org/1999/xlink" version="1.1"><rect x="0" y="0" width="900" height="600" fill="#ffffff"></rect><defs><linearGradient id="grad1_0" x1="33.3%" y1="100%" x2="100%" y2="0%"><stop offset="20%" stop-color="#ffffff" stop-opacity="1"></stop><stop offset="80%" stop-color="#ffffff" stop-opacity="1"></stop></linearGradient></defs><defs><linearGradient id="grad2_0" x1="0%" y1="100%" x2="66.7%" y2="0%"><stop offset="20%" stop-color="#ffffff" stop-opacity="1"></stop><stop offset="80%" stop-color="#ffffff" stop-opacity="1"></stop></linearGradient></defs><g transform="translate(900, 600)"><path d="M-324.5 0C-297.4 -15.9 -270.4 -31.8 -239 -37.9C-207.7 -44 -172.1 -40.3 -187.4 -60.9C-202.6 -81.5 -268.8 -126.3 -266.4 -135.7C-264 -145.2 -193.1 -119.3 -177.2 -128.7C-161.2 -138.1 -200.2 -182.9 -208.6 -208.6C-217 -234.3 -194.9 -241 -170.5 -234.6C-146 -228.2 -119.4 -208.7 -102.6 -201.4C-85.8 -194 -79 -198.8 -73.2 -225.4C-67.5 -252 -62.8 -300.4 -50.8 -320.5C-38.7 -340.7 -19.4 -332.6 0 -324.5L0 0Z" fill="#FFCC00"></path></g><g transform="translate(0, 0)"><path d="M324.5 0C266.3 10.1 208 20.2 185.7 29.4C163.3 38.7 176.9 47.1 195 63.3C213 79.6 235.6 103.8 246.8 125.8C258 147.7 257.8 167.4 248.4 180.5C239 193.5 220.4 200 205.1 205.1C189.7 210.2 177.7 213.9 172.2 237C166.8 260.1 167.9 302.6 147.3 289.1C126.7 275.7 84.4 206.4 66.1 203.5C47.9 200.6 53.8 264.1 46.8 295.3C39.8 326.5 19.9 325.5 0 324.5L0 0Z" fill="#FFCC00"></path></g></svg>