<svg id="visual" viewBox="0 0 900 300" width="900" height="300" xmlns="http://www.w3.org/2000/svg" xmlns:xlink="http://www.w3.org/1999/xlink" version="1.1"><rect x="0" y="0" width="900" height="300" fill="#ffffff"></rect><defs><linearGradient id="grad1_0" x1="66.7%" y1="0%" x2="100%" y2="100%"><stop offset="-10%" stop-color="#ffffff" stop-opacity="1"></stop><stop offset="110%" stop-color="#ffffff" stop-opacity="1"></stop></linearGradient></defs><defs><linearGradient id="grad2_0" x1="0%" y1="0%" x2="33.3%" y2="100%"><stop offset="-10%" stop-color="#ffffff" stop-opacity="1"></stop><stop offset="110%" stop-color="#ffffff" stop-opacity="1"></stop></linearGradient></defs><g transform="translate(900, 0)"><path d="M0 270C-25.6 241.7 -51.3 213.4 -84.2 203.3C-117.1 193.1 -157.3 201.1 -187.4 187.4C-217.4 173.7 -237.4 138.2 -249.4 103.3C-261.5 68.5 -265.8 34.2 -270 0L0 0Z" fill="#FFCC00"></path></g><g transform="translate(0, 300)"><path d="M0 -270C35.7 -266.7 71.5 -263.5 103.3 -249.4C135.2 -235.4 163.2 -210.6 183.1 -183.1C203.1 -155.7 215.1 -125.5 228.2 -94.5C241.3 -63.6 255.7 -31.8 270 0L0 0Z" fill="#FFCC00"></path></g></svg>